<mxfile host="app.diagrams.net" modified="2023-10-14T05:44:27.422Z" agent="Mozilla/5.0 (Windows NT 10.0; Win64; x64) AppleWebKit/537.36 (KHTML, like Gecko) Chrome/117.0.0.0 Safari/537.36 Edg/117.0.2045.60" etag="HBd70Vx59D7XP7WAW3RT" version="22.0.4" type="device">
  <diagram name="Page-1" id="VSr6sMYYl4fEP5RemYB_">
    <mxGraphModel dx="1786" dy="1643" grid="0" gridSize="10" guides="1" tooltips="1" connect="1" arrows="1" fold="1" page="0" pageScale="1" pageWidth="1100" pageHeight="850" math="0" shadow="0">
      <root>
        <mxCell id="0" />
        <mxCell id="1" parent="0" />
        <mxCell id="X1boQf_LF27DJ73jZzlj-14" style="edgeStyle=none;curved=1;rounded=0;orthogonalLoop=1;jettySize=auto;html=1;entryX=0.5;entryY=0;entryDx=0;entryDy=0;fontSize=12;startSize=8;endSize=8;" parent="1" source="X1boQf_LF27DJ73jZzlj-6" target="X1boQf_LF27DJ73jZzlj-7" edge="1">
          <mxGeometry relative="1" as="geometry" />
        </mxCell>
        <mxCell id="X1boQf_LF27DJ73jZzlj-6" value="&lt;b&gt;Vector Assembler&lt;/b&gt;&amp;nbsp;&amp;nbsp;&lt;br&gt;&lt;font style=&quot;font-size: 14px;&quot;&gt;- create a feature vector from the defined feature set&amp;nbsp;&lt;/font&gt;" style="rounded=0;whiteSpace=wrap;html=1;fontSize=16;fillColor=#f8cecc;strokeColor=#b85450;" parent="1" vertex="1">
          <mxGeometry x="-45" y="-734" width="373" height="70" as="geometry" />
        </mxCell>
        <mxCell id="X1boQf_LF27DJ73jZzlj-15" style="edgeStyle=none;curved=1;rounded=0;orthogonalLoop=1;jettySize=auto;html=1;fontSize=12;startSize=8;endSize=8;" parent="1" source="X1boQf_LF27DJ73jZzlj-7" target="X1boQf_LF27DJ73jZzlj-10" edge="1">
          <mxGeometry relative="1" as="geometry" />
        </mxCell>
        <mxCell id="X1boQf_LF27DJ73jZzlj-7" value="&lt;b&gt;Robust Scaler (Optional)&lt;/b&gt;&lt;br&gt;&lt;font style=&quot;font-size: 14px;&quot;&gt;- scale the features within proper ranges by the median and the Inter-Quartile-Range (IQR)&lt;/font&gt;" style="rounded=0;whiteSpace=wrap;html=1;fontSize=16;fillColor=#f8cecc;strokeColor=#b85450;" parent="1" vertex="1">
          <mxGeometry x="-45" y="-619" width="373" height="70" as="geometry" />
        </mxCell>
        <mxCell id="X1boQf_LF27DJ73jZzlj-17" style="edgeStyle=none;curved=1;rounded=0;orthogonalLoop=1;jettySize=auto;html=1;fontSize=12;startSize=8;endSize=8;" parent="1" source="X1boQf_LF27DJ73jZzlj-8" target="X1boQf_LF27DJ73jZzlj-11" edge="1">
          <mxGeometry relative="1" as="geometry" />
        </mxCell>
        <mxCell id="X1boQf_LF27DJ73jZzlj-8" value="&lt;b&gt;Hyperparameter Tuning&lt;/b&gt;&amp;nbsp;&lt;br&gt;&lt;font style=&quot;font-size: 14px;&quot;&gt;- use the grid search the find hyperparameter and tune the Random Forest Regressor accordingly&amp;nbsp;&lt;/font&gt;" style="rounded=0;whiteSpace=wrap;html=1;fontSize=16;fillColor=#f8cecc;strokeColor=#b85450;" parent="1" vertex="1">
          <mxGeometry x="-43" y="-396" width="373" height="70" as="geometry" />
        </mxCell>
        <mxCell id="X1boQf_LF27DJ73jZzlj-9" value="&lt;b&gt;MACHINE LEARNING PIPELINE - RANDOM FOREST REGRESSOR&lt;/b&gt;" style="shape=umlFrame;whiteSpace=wrap;html=1;pointerEvents=0;fontSize=16;width=565;height=46;fillColor=#ffe6cc;strokeColor=#d79b00;" parent="1" vertex="1">
          <mxGeometry x="-132" y="-796" width="565" height="713" as="geometry" />
        </mxCell>
        <mxCell id="X1boQf_LF27DJ73jZzlj-16" style="edgeStyle=none;curved=1;rounded=0;orthogonalLoop=1;jettySize=auto;html=1;entryX=0.5;entryY=0;entryDx=0;entryDy=0;fontSize=12;startSize=8;endSize=8;" parent="1" source="X1boQf_LF27DJ73jZzlj-10" target="X1boQf_LF27DJ73jZzlj-8" edge="1">
          <mxGeometry relative="1" as="geometry" />
        </mxCell>
        <mxCell id="X1boQf_LF27DJ73jZzlj-10" value="&lt;b&gt;Define Training and Test Data&lt;br&gt;&lt;/b&gt;&lt;font style=&quot;font-size: 14px;&quot;&gt;- Train on data from 2019 to 2022 and validate on 2023&lt;/font&gt;" style="rounded=0;whiteSpace=wrap;html=1;fontSize=16;fillColor=#f8cecc;strokeColor=#b85450;" parent="1" vertex="1">
          <mxGeometry x="-43" y="-506" width="373" height="70" as="geometry" />
        </mxCell>
        <mxCell id="n7mHmzmU4g9lNmNaldKj-2" style="edgeStyle=none;curved=1;rounded=0;orthogonalLoop=1;jettySize=auto;html=1;entryX=0.5;entryY=0;entryDx=0;entryDy=0;fontSize=12;startSize=8;endSize=8;" edge="1" parent="1" source="X1boQf_LF27DJ73jZzlj-11" target="n7mHmzmU4g9lNmNaldKj-1">
          <mxGeometry relative="1" as="geometry" />
        </mxCell>
        <mxCell id="X1boQf_LF27DJ73jZzlj-11" value="&lt;b style=&quot;border-color: var(--border-color);&quot;&gt;Fit, Transform, and Predict&lt;/b&gt;&amp;nbsp;&lt;br style=&quot;border-color: var(--border-color);&quot;&gt;&lt;font style=&quot;border-color: var(--border-color); font-size: 14px;&quot;&gt;- use the tuned Random Forest Regressor and predict the target variable&lt;/font&gt;" style="rounded=0;whiteSpace=wrap;html=1;fontSize=16;fillColor=#f8cecc;strokeColor=#b85450;" parent="1" vertex="1">
          <mxGeometry x="-43" y="-290" width="373" height="70" as="geometry" />
        </mxCell>
        <mxCell id="n7mHmzmU4g9lNmNaldKj-1" value="&lt;b style=&quot;border-color: var(--border-color);&quot;&gt;Performance Evaluation&lt;/b&gt;&amp;nbsp;&lt;br style=&quot;border-color: var(--border-color);&quot;&gt;&lt;font style=&quot;border-color: var(--border-color); font-size: 14px;&quot;&gt;- use Regression Testing metrics like RMSE, MAE, R2 and MAPE to gauge the model&#39;s performance&lt;/font&gt;" style="rounded=0;whiteSpace=wrap;html=1;fontSize=16;fillColor=#f8cecc;strokeColor=#b85450;" vertex="1" parent="1">
          <mxGeometry x="-43" y="-184" width="373" height="70" as="geometry" />
        </mxCell>
      </root>
    </mxGraphModel>
  </diagram>
</mxfile>
